<svg id="visual" viewBox="0 0 1200 900" width="1200" height="900" xmlns="http://www.w3.org/2000/svg" xmlns:xlink="http://www.w3.org/1999/xlink" version="1.1"><rect x="0" y="0" width="1200" height="900" fill="#001220"></rect><defs><linearGradient id="grad1_0" x1="25%" y1="0%" x2="100%" y2="100%"><stop offset="23.333333333333336%" stop-color="#001220" stop-opacity="1"></stop><stop offset="76.66666666666666%" stop-color="#001220" stop-opacity="1"></stop></linearGradient></defs><defs><linearGradient id="grad2_0" x1="0%" y1="0%" x2="75%" y2="100%"><stop offset="23.333333333333336%" stop-color="#001220" stop-opacity="1"></stop><stop offset="76.66666666666666%" stop-color="#001220" stop-opacity="1"></stop></linearGradient></defs><g transform="translate(1200, 0)"><path d="M0 675C-63 605.9 -126.1 536.9 -213.2 514.6C-300.2 492.3 -411.4 516.8 -477.3 477.3C-543.2 437.8 -564 334.4 -589.4 244.2C-614.9 153.9 -644.9 77 -675 0L0 0Z" fill="#FBAE3C"></path></g><g transform="translate(0, 900)"><path d="M0 -675C98 -676.3 196 -677.7 258.3 -623.6C320.6 -569.6 347.2 -460.2 387.5 -387.5C427.8 -314.8 481.9 -278.9 532.2 -220.4C582.4 -162 628.7 -81 675 0L0 0Z" fill="#FBAE3C"></path></g></svg>